<?xml version="1.0" encoding="UTF-8" standalone="no"?>
<!-- Created with Inkscape (http://www.inkscape.org/) -->

<svg
   xmlns:dc="http://purl.org/dc/elements/1.1/"
   xmlns:cc="http://creativecommons.org/ns#"
   xmlns:rdf="http://www.w3.org/1999/02/22-rdf-syntax-ns#"
   xmlns:svg="http://www.w3.org/2000/svg"
   xmlns="http://www.w3.org/2000/svg"
   xmlns:xlink="http://www.w3.org/1999/xlink"
   xmlns:sodipodi="http://sodipodi.sourceforge.net/DTD/sodipodi-0.dtd"
   xmlns:inkscape="http://www.inkscape.org/namespaces/inkscape"
   width="100"
   height="100"
   id="svg2"
   version="1.1"
   inkscape:version="0.92.2 (5c3e80d, 2017-08-06)"
   sodipodi:docname="logo.svg"
   inkscape:export-filename="logo24eme.png"
   inkscape:export-xdpi="24.299999"
   inkscape:export-ydpi="24.299999">
  <defs
     id="defs4">
    <inkscape:perspective
       sodipodi:type="inkscape:persp3d"
       inkscape:vp_x="0 : 250 : 1"
       inkscape:vp_y="0 : 1000 : 0"
       inkscape:vp_z="500 : 250 : 1"
       inkscape:persp3d-origin="250 : 166.66667 : 1"
       id="perspective3902" />
    <linearGradient
       inkscape:collect="always"
       id="linearGradient3848">
      <stop
         style="stop-color:#cab796;stop-opacity:1;"
         offset="0"
         id="stop3850" />
      <stop
         style="stop-color:#cab796;stop-opacity:0;"
         offset="1"
         id="stop3852" />
    </linearGradient>
    <radialGradient
       inkscape:collect="always"
       xlink:href="#linearGradient3848"
       id="radialGradient3854"
       cx="367.41251"
       cy="306.09787"
       fx="367.41251"
       fy="306.09787"
       r="219.16798"
       gradientTransform="matrix(1,0,0,0.97299204,604.07123,369.90169)"
       gradientUnits="userSpaceOnUse" />
  </defs>
  <sodipodi:namedview
     id="base"
     pagecolor="#ffffff"
     bordercolor="#666666"
     borderopacity="1.0"
     inkscape:pageopacity="0.0"
     inkscape:pageshadow="2"
     inkscape:zoom="0.98994949"
     inkscape:cx="16.970165"
     inkscape:cy="10.224698"
     inkscape:document-units="px"
     inkscape:current-layer="layer1"
     showgrid="false"
     inkscape:window-width="1920"
     inkscape:window-height="1016"
     inkscape:window-x="0"
     inkscape:window-y="27"
     inkscape:window-maximized="1" />
  <metadata
     id="metadata7">
    <rdf:RDF>
      <cc:Work
         rdf:about="">
        <dc:format>image/svg+xml</dc:format>
        <dc:type
           rdf:resource="http://purl.org/dc/dcmitype/StillImage" />
        <dc:title />
      </cc:Work>
    </rdf:RDF>
  </metadata>
  <g
     inkscape:label="Calque 1"
     inkscape:groupmode="layer"
     id="layer1"
     transform="translate(0,-552.36218)">
    <path
       inkscape:connector-curvature="0"
       id="path3054"
       d="M 43.497943,648.52741 C 23.873586,645.81783 8.0691299,631.71448 3.7816755,613.08597 2.7415502,608.56673 2.3345001,601.62161 2.8950022,597.95748 c 1.1064056,-7.23284 2.7385718,-12.148 5.7484115,-17.31097 2.5942643,-4.45011 6.6328723,-9.22754 10.5619913,-12.49423 6.116893,-5.08559 14.15929,-8.79374 22.036738,-10.16058 8.028093,-1.39296 15.259509,-0.92065 23.363959,1.52599 0.79776,0.24084 1.493009,0.5067 1.545003,0.59084 0.05198,0.0842 -0.407365,0.71104 -1.020794,1.39314 l -1.115325,1.24019 -2.264461,-0.63912 c -7.624728,-2.15201 -15.628563,-2.18846 -23.623535,-0.1076 -10.087815,2.62558 -19.392298,9.2612 -25.229548,17.99282 -4.6080497,6.89291 -6.9825478,14.75108 -6.9825478,23.10803 0,10.52173 3.6570953,19.91846 10.9207658,28.06037 2.005418,2.2479 2.024902,2.26626 4.927089,4.64468 5.940495,4.86842 12.749905,7.86403 21.412937,9.42007 1.995813,0.35847 8.744331,0.49805 11.179668,0.23121 16.82095,-1.84307 30.825611,-12.40839 36.722826,-27.70424 3.312998,-8.59307 3.540701,-18.83178 0.613439,-27.58359 l -0.614668,-1.83768 1.197852,-1.33509 1.197845,-1.33508 0.583509,1.48727 c 0.877993,2.23786 1.813103,5.65647 2.33605,8.54017 0.629734,3.47262 0.676745,10.61967 0.0932,14.17932 -1.606468,9.80056 -5.91122,18.1877 -12.902582,25.13869 -6.206567,6.17072 -13.964062,10.56026 -22.038527,12.47038 -0.768046,0.18169 -1.589802,0.37825 -1.826125,0.43679 -3.384014,0.83824 -12.194527,1.174 -16.220279,0.61815 z M 37.375057,624.2075 c -0.354483,-0.0512 -1.982874,-0.42094 -3.61865,-0.82168 -1.867107,-0.4574 -3.786307,-0.77489 -5.156115,-0.85298 -2.135114,-0.12172 -2.221049,-0.10823 -4.000916,0.62831 -1.000413,0.414 -1.870508,0.70082 -1.933543,0.63739 -0.254587,-0.25619 -0.0381,-3.72939 0.306893,-4.92369 0.70971,-2.45683 2.854735,-5.84627 5.393996,-8.52325 0.582627,-0.61423 2.219734,-2.33137 3.638009,-3.81587 6.291876,-6.58562 8.398463,-10.13709 9.146063,-15.41919 0.430459,-3.04136 -0.193719,-5.05101 -1.932787,-6.22296 -1.280811,-0.86314 -3.783289,-0.59177 -5.006846,0.54293 -1.568572,1.45468 -1.538651,5.05996 0.0559,6.73619 0.895483,0.94135 0.851528,1.04034 -0.853591,1.9223 -1.390486,0.71921 -3.179269,0.80215 -4.255482,0.19728 -1.650752,-0.92778 -2.450962,-3.06118 -2.110596,-5.62699 0.42362,-3.1934 3.041181,-5.7103 7.042055,-6.77125 1.671338,-0.4432 6.81553,-0.51167 8.525467,-0.11348 4.733684,1.10232 6.900729,4.21358 6.616444,9.49934 -0.3241,6.02604 -3.198704,10.09907 -12.241181,17.34451 -1.440318,1.1541 -3.431692,2.87176 -4.425273,3.81705 -1.744995,1.66017 -3.556824,3.73557 -3.398973,3.89343 0.0422,0.0421 0.939745,0.16995 1.994542,0.28391 1.054799,0.11395 3.077943,0.35584 4.495874,0.53755 5.809714,0.74449 7.726932,0.34005 10.849999,-2.28879 l 1.503195,-1.26531 -0.0113,2.10508 c -0.02686,5.00338 -1.117423,7.45269 -3.702165,8.31478 -0.987251,0.32927 -5.152269,0.44085 -6.921021,0.18539 z m 22.759798,-0.66522 c 0.06188,-0.19741 0.355668,-1.51905 0.652869,-2.93698 0.297199,-1.41793 0.738843,-3.49649 0.981433,-4.61901 0.242586,-1.12254 0.677164,-3.16695 0.965722,-4.54317 0.288567,-1.37621 0.584134,-2.65718 0.656819,-2.8466 0.119592,-0.31164 -0.533436,-0.34441 -6.863434,-0.34441 h -6.995597 l 0.507665,-1.34274 c 0.279217,-0.7385 1.39707,-3.22794 2.484116,-5.53207 3.040949,-6.4457 4.15436,-9.31323 4.851759,-12.4955 0.366612,-1.67288 0.49828,-6.15101 0.206813,-7.03394 -0.168923,-0.51173 -0.1604,-0.51508 0.969374,-0.38128 0.626887,0.0742 1.654011,0.38658 2.282496,0.69407 2.870616,1.40446 3.579668,4.52682 2.070876,9.11925 -0.769847,2.34325 -1.702188,3.95742 -5.638028,9.76118 -0.956373,1.41027 -1.738858,2.69125 -1.738858,2.84662 0,0.22423 0.907398,0.28248 4.400089,0.28248 4.388806,0 4.400355,-0.002 4.504779,-0.48338 0.05762,-0.26586 0.451198,-2.12689 0.874713,-4.13564 0.423507,-2.00872 1.050279,-4.95738 1.392828,-6.55256 0.34255,-1.59517 0.981486,-4.59217 1.419845,-6.65998 0.438369,-2.06782 0.819997,-3.79017 0.848073,-3.82747 0.03756,-0.0498 7.84366,-1.10832 8.208711,-1.11306 0.05924,-8.5e-4 -0.04115,0.53081 -0.385513,2.04022 -0.107821,0.47264 -0.445735,2.06781 -0.750922,3.54482 -0.305178,1.47701 -0.641829,3.07219 -0.748096,3.54483 -1.29333,5.75207 -2.792297,12.85034 -2.792297,13.22282 0,0.38104 0.157254,0.4194 1.718706,0.4194 0.945291,0 1.716675,0.0242 1.714191,0.0537 -0.0026,0.0295 -0.231776,0.92381 -0.509527,1.98726 l -0.505011,1.93354 -1.730281,0.0622 -1.730272,0.0622 -0.24394,1.11947 c -0.134164,0.61571 -0.477063,2.23126 -0.761994,3.59011 -0.284938,1.35885 -0.906989,4.3075 -1.382327,6.55256 -0.47534,2.24506 -0.864719,4.15787 -0.865282,4.25068 -6.41e-4,0.0928 -1.841969,0.15764 -4.092012,0.14407 -3.717269,-0.0224 -4.080714,-0.0574 -3.978486,-0.38358 z m 10.767796,-46.25077 c -0.560599,-0.66624 -0.593976,-0.81398 -0.50263,-2.2247 0.21565,-3.33055 1.92401,-5.20422 4.332981,-4.75229 0.862362,0.16178 1.326936,1.01764 1.103825,2.03348 -0.186242,0.84794 -1.581366,2.09052 -2.679046,2.38608 -0.726995,0.19576 -0.871522,0.32472 -0.871522,0.77762 0,1.31458 0.987904,1.85388 2.276172,1.24255 1.410088,-0.66913 2.055997,-2.03946 2.596203,-5.50801 l 0.125474,-0.80564 h 1.146575 c 0.930917,0 1.123323,0.0607 1.02292,0.32226 -0.155547,0.40535 0.120412,0.4025 0.661599,-0.007 0.610851,-0.46203 1.83153,-0.39712 2.38949,0.12705 l 0.470994,0.44247 0.72446,-0.44167 c 0.980563,-0.59779 2.137245,-0.58059 2.695966,0.0402 0.702795,0.78077 0.727566,1.12979 0.240721,3.39208 -0.502168,2.33357 -0.416926,2.73184 0.53365,2.49326 0.478702,-0.12014 0.531447,-0.26207 0.642332,-1.72818 0.217614,-2.87729 1.421109,-4.61957 3.315439,-4.79966 0.828687,-0.0788 1.146243,-0.007 1.621334,0.36842 1.474903,1.16433 0.05292,3.56374 -2.470636,4.16882 -0.480708,0.11526 -0.590808,0.26101 -0.590808,0.78208 0,0.92667 0.724853,1.58038 1.565857,1.41219 0.363967,-0.0728 0.820722,-0.27622 1.015024,-0.45206 0.857393,-0.77593 0.869677,-0.0849 0.01374,0.77101 -0.554539,0.55454 -0.778743,0.62799 -1.917054,0.62799 -1.046617,0 -1.404122,-0.0968 -1.900767,-0.51471 l -0.611697,-0.5147 -0.598379,0.5147 c -0.769505,0.66191 -2.104245,0.70359 -2.722804,0.085 -0.504891,-0.5049 -0.527563,-1.14249 -0.103117,-2.90031 0.586044,-2.42712 0.316309,-3.55397 -0.755797,-3.15737 -0.379553,0.14041 -0.504677,0.38566 -0.577107,1.13121 -0.05087,0.52359 -0.305921,1.91873 -0.566779,3.10034 l -0.474289,2.14838 -1.090338,0.0638 -1.090331,0.0638 0.265793,-1.24536 c 1.072292,-5.02412 1.023841,-4.60156 0.578703,-5.04668 -0.318631,-0.31864 -0.521306,-0.36301 -0.936695,-0.20507 -0.475809,0.18089 -0.591065,0.48435 -1.125517,2.96331 -0.327483,1.51899 -0.644484,2.93098 -0.704443,3.13776 -0.0846,0.29166 -0.34359,0.37596 -1.155222,0.37596 h -1.046206 l 0.128128,-0.78955 0.128129,-0.78955 -0.903806,0.72631 c -0.765126,0.61487 -1.110646,0.73949 -2.251903,0.81216 -1.30668,0.0832 -1.366545,0.064 -1.948578,-0.62779 z m 2.6301,-3.28408 c 0.855687,-0.44251 1.334833,-1.0573 1.469176,-1.88516 0.147018,-0.90599 -0.305623,-1.40715 -0.956372,-1.05888 -0.420716,0.22516 -1.191015,1.65046 -1.450293,2.68349 -0.162155,0.64608 0.0682,0.71009 0.937489,0.26055 z m 17.436124,-0.0177 c 0.886332,-0.45833 1.512164,-1.35173 1.512164,-2.15866 0,-0.72731 -0.378172,-1.0495 -0.96676,-0.82364 -0.313612,0.12034 -1.611296,2.58673 -1.611296,3.06243 0,0.32372 0.333399,0.29866 1.065892,-0.0802 z m -18.660892,-7.02883 -1.804383,-1.08567 0.837615,-0.71698 c 0.460691,-0.39434 0.887732,-0.7206 0.94898,-0.72505 0.0612,-0.004 0.592967,0.39029 1.181607,0.87716 0.58864,0.48687 1.30301,1.06867 1.587488,1.29287 l 0.517234,0.40764 -0.500973,0.53326 c -0.27554,0.29329 -0.60497,0.52632 -0.732074,0.51785 -0.127104,-0.009 -1.043073,-0.50398 -2.035494,-1.10108 z"
       style="fill:#cfbea1;stroke-width:0.21483815" />
  </g>
</svg>
